<?xml version="1.0" encoding="UTF-8" standalone="no"?>
<!-- Created with Inkscape (http://www.inkscape.org/) -->

<svg
   width="199.41373"
   height="168.44818"
   viewBox="0 0 52.761548 44.568581"
   version="1.1"
   id="svg5"
   xmlns="http://www.w3.org/2000/svg"
   xmlns:svg="http://www.w3.org/2000/svg">
  <defs
     id="defs2" />
  <g
     id="layer1"
     transform="translate(-42.655102,-33.55832)">
    <g
       id="g39"
       transform="matrix(0.45521945,0,0,0.45521945,25.865028,17.503456)">
      <path
         style="fill:#221e1f;stroke-width:0.0300935"
         d="m 141.67413,133.16431 c -0.006,-0.005 -2.39414,-0.0184 -5.3072,-0.029 -2.91305,-0.0106 -6.38659,-0.026 -7.71898,-0.0341 -1.33239,-0.008 -9.21388,-0.0412 -17.51442,-0.0735 -8.30054,-0.0323 -16.459648,-0.0659 -18.131342,-0.0748 -1.671695,-0.009 -4.644181,-0.0229 -6.605525,-0.0313 -1.961345,-0.008 -4.818723,-0.0219 -6.349731,-0.0302 -1.531007,-0.008 -7.990578,-0.0347 -14.354603,-0.0586 -6.364025,-0.0239 -12.722031,-0.0511 -14.128902,-0.0603 -1.406872,-0.009 -3.433581,-0.0173 -4.5038,-0.018 l -1.945851,-0.001 -1.636732,-1.39025 c -0.900203,-0.76464 -1.696881,-1.44022 -1.770396,-1.50128 l -0.133665,-0.11101 -0.05053,-0.70151 c -0.04873,-0.67664 -0.137363,-1.85645 -0.326802,-4.35035 -0.04935,-0.64964 -0.130093,-1.71269 -0.179434,-2.36234 -0.04934,-0.64964 -0.123294,-1.62805 -0.16434,-2.17425 -0.04104,-0.5462 -0.115534,-1.528 -0.165532,-2.18178 -0.05,-0.65378 -0.131256,-1.72361 -0.180575,-2.37739 -0.150541,-1.99556 -0.269575,-3.56872 -0.364329,-4.81496 -0.196645,-2.58634 -0.268574,-3.54102 -0.328765,-4.36356 -0.03452,-0.47171 -0.08926,-1.19621 -0.121653,-1.61 -0.03239,-0.41379 -0.07954,-1.02318 -0.104787,-1.35421 -0.09625,-1.2622 -0.331481,-4.366634 -0.498237,-6.575434 -0.04936,-0.65378 -0.130482,-1.72361 -0.180277,-2.37739 -0.09644,-1.26618 -0.211511,-2.78491 -0.359126,-4.73972 -0.05,-0.66206 -0.13103,-1.73189 -0.180079,-2.37739 -0.180691,-2.378 -0.27635,-3.63952 -0.363969,-4.79992 -0.04937,-0.65378 -0.130281,-1.7236 -0.179811,-2.37738 -0.04953,-0.65378 -0.110357,-1.45954 -0.135171,-1.79057 -0.02481,-0.33103 -0.06543,-0.86594 -0.09026,-1.18869 -0.04759,-0.6187 -0.16263,-2.13319 -0.314303,-4.13786 -0.05009,-0.66206 -0.130611,-1.72511 -0.178932,-2.36234 -0.04832,-0.63723 -0.118174,-1.57163 -0.155228,-2.07645 l -0.06737,-0.91785 0.415601,-0.63197 c 0.401866,-0.61108 1.739039,-2.65589 2.912511,-4.45384 0.313279,-0.47999 0.572236,-0.87563 0.57546,-0.87921 0.0032,-0.004 5.191813,-0.0477 11.530195,-0.098 6.338382,-0.0503 17.455761,-0.13882 24.705287,-0.19671 7.249526,-0.0579 22.504682,-0.17958 33.900333,-0.27043 11.39566,-0.0909 24.18615,-0.19285 28.42332,-0.22668 4.23717,-0.0338 8.20483,-0.0576 8.81702,-0.0529 l 1.11308,0.009 0.1906,0.34608 c 0.10483,0.19034 0.39101,0.71171 0.63595,1.1586 0.95829,1.74835 1.83641,3.3452 2.25063,4.09271 l 0.43356,0.78243 -0.0169,0.19561 c -0.009,0.10759 -0.0511,0.6899 -0.0929,1.29402 -0.11505,1.6635 -0.24797,3.56051 -0.3142,4.48394 -0.0326,0.45516 -0.10746,1.52499 -0.16627,2.37739 -0.15289,2.21606 -0.24265,3.50549 -0.34564,4.96543 -0.0496,0.70343 -0.12442,1.77326 -0.16622,2.37738 -0.0418,0.60413 -0.10903,1.55885 -0.14941,2.1216 -0.0404,0.56274 -0.0815,1.15182 -0.0913,1.30906 -0.01,0.15724 -0.051,0.75309 -0.0914,1.32412 -0.0747,1.05445 -0.19434,2.76178 -0.32908,4.69458 -0.041,0.58758 -0.11575,1.6574 -0.1662,2.37739 -0.0505,0.71999 -0.12534,1.78981 -0.16641,2.37739 -0.0411,0.58757 -0.095,1.34593 -0.1198,1.68524 -0.0248,0.3393 -0.0651,0.91484 -0.0895,1.278974 -0.0244,0.36413 -0.0719,1.05478 -0.10548,1.53477 -0.0336,0.47999 -0.10178,1.45502 -0.15143,2.16673 -0.0497,0.71171 -0.12352,1.76122 -0.16414,2.33225 -0.0406,0.57102 -0.0814,1.1601 -0.0907,1.30907 -0.0157,0.2523 -0.0432,0.64446 -0.24046,3.43065 -0.041,0.5793 -0.0818,1.16839 -0.0907,1.30907 -0.0151,0.23882 -0.0519,0.76354 -0.23894,3.40057 -0.0405,0.57102 -0.0817,1.16687 -0.0917,1.32411 -0.01,0.15724 -0.0513,0.75309 -0.0919,1.32412 -0.0715,1.00624 -0.12725,1.79967 -0.31476,4.48393 -0.0491,0.70344 -0.16585,2.36209 -0.25934,3.68589 l -0.16998,2.40692 -0.0942,0.10886 c -0.0518,0.0599 -0.93252,1.0239 -1.95715,2.14228 l -1.86295,2.03341 -1.4366,6.3e-4 c -0.79013,3.6e-4 -1.44143,-0.004 -1.44733,-0.009 z m 2.09094,-73.994484 c -0.009,-0.0142 -0.006,-0.31379 0.006,-0.66578 0.0119,-0.352 0.0116,-1.39393 -7.2e-4,-2.31542 l -0.0224,-1.67542 H 94.428036 45.10837 v 2.13664 2.13664 h -1.562697 -1.562698 l -0.01608,-0.158 c -0.0088,-0.0869 -0.02276,-0.6455 -0.03091,-1.24135 -0.0082,-0.59585 -0.02905,-1.74016 -0.04644,-2.5429 -0.05933,-2.73881 -0.09294,-4.3777 -0.121874,-5.94347 -0.01591,-0.86068 -0.0424,-2.07946 -0.05888,-2.70842 -0.01648,-0.62895 -0.03774,-1.64461 -0.04725,-2.25701 -0.0095,-0.6124 -0.02994,-1.54681 -0.04541,-2.07645 -0.01546,-0.52965 -0.02732,-1.17967 -0.02636,-1.44449 l 0.0018,-0.4815 1.752194,-2.33224 1.752195,-2.33225 h 17.436195 17.436194 l 4.811061,5.46197 c 2.646086,3.00408 4.845849,5.50239 4.888366,5.55179 l 0.0773,0.0898 26.823514,6.9e-4 c 23.74549,6.1e-4 26.82825,0.006 26.86479,0.0456 0.0227,0.0247 0.99136,1.08362 2.15254,2.35314 l 2.11125,2.3082 v 4.06387 4.06388 l -1.95807,-0.006 c -1.07694,-0.003 -1.96523,-0.0175 -1.97399,-0.0317 z"
         id="path363" />
    </g>
  </g>
</svg>
